<svg width="50" height="50" viewBox="0 0 50 50" fill="none" xmlns="http://www.w3.org/2000/svg">
<g clip-path="url(#clip0_1134_1138)">
<path d="M42 16.2499C41.8125 15.2916 40.9583 14.5833 39.9583 14.5833H10.0417C9.04167 14.5833 8.1875 15.2916 8 16.2499L6.25 24.9999V27.0833C6.25 28.2291 7.1875 29.1666 8.33333 29.1666V39.5833C8.33333 40.7291 9.27083 41.6666 10.4167 41.6666H27.0833C28.2292 41.6666 29.1667 40.7291 29.1667 39.5833V29.1666H37.5V39.5833C37.5 40.7291 38.4375 41.6666 39.5833 41.6666C40.7292 41.6666 41.6667 40.7291 41.6667 39.5833V29.1666C42.8125 29.1666 43.75 28.2291 43.75 27.0833V24.9999L42 16.2499ZM25 37.4999H12.5V29.1666H25V37.4999ZM10.4167 12.4999H39.5833C40.7292 12.4999 41.6667 11.5624 41.6667 10.4166C41.6667 9.27075 40.7292 8.33325 39.5833 8.33325H10.4167C9.27083 8.33325 8.33333 9.27075 8.33333 10.4166C8.33333 11.5624 9.27083 12.4999 10.4167 12.4999Z" fill="white"/>
</g>
<defs>
<clipPath id="clip0_1134_1138">
<rect width="50" height="50" fill="white"/>
</clipPath>
</defs>
</svg>
