<svg width="12" height="12" viewBox="0 0 12 12" fill="none" xmlns="http://www.w3.org/2000/svg">
<path fill-rule="evenodd" clip-rule="evenodd" d="M11.76 6.13633C11.76 5.71088 11.7218 5.30178 11.6509 4.90906H6V7.22997H9.22909C9.09 7.97997 8.66727 8.61542 8.03182 9.04087V10.5463H9.97091C11.1055 9.50178 11.76 7.9636 11.76 6.13633Z" fill="#4285F4"/>
<path fill-rule="evenodd" clip-rule="evenodd" d="M6 11.9999C7.62 11.9999 8.97818 11.4626 9.97091 10.5463L8.03182 9.0408C7.49455 9.4008 6.80727 9.61353 6 9.61353C4.43727 9.61353 3.11455 8.55807 2.64273 7.13989H0.638184V8.69444C1.62546 10.6553 3.65455 11.9999 6 11.9999Z" fill="#34A853"/>
<path fill-rule="evenodd" clip-rule="evenodd" d="M2.64273 7.14009C2.52273 6.78009 2.45455 6.39554 2.45455 6.00009C2.45455 5.60463 2.52273 5.22009 2.64273 4.86009V3.30554H0.638182C0.231818 4.11554 0 5.03191 0 6.00009C0 6.96827 0.231818 7.88463 0.638182 8.69463L2.64273 7.14009Z" fill="#FBBC05"/>
<path fill-rule="evenodd" clip-rule="evenodd" d="M6 2.38636C6.88091 2.38636 7.67182 2.68909 8.29364 3.28364L10.0145 1.56273C8.97546 0.594545 7.61728 0 6 0C3.65455 0 1.62546 1.34455 0.638184 3.30545L2.64273 4.86C3.11455 3.44182 4.43728 2.38636 6 2.38636Z" fill="#EA4335"/>
</svg>
