<svg width="18" height="20" viewBox="0 0 18 20" fill="none" xmlns="http://www.w3.org/2000/svg">
<path d="M14.8333 0H3.16663C2.70829 0 2.33329 0.375 2.33329 0.833333C2.33329 1.29167 2.70829 1.66667 3.16663 1.66667H14.8333C15.2916 1.66667 15.6666 1.29167 15.6666 0.833333C15.6666 0.375 15.2916 0 14.8333 0ZM3.16663 20H14.8333C15.2916 20 15.6666 19.625 15.6666 19.1667C15.6666 18.7083 15.2916 18.3333 14.8333 18.3333H3.16663C2.70829 18.3333 2.33329 18.7083 2.33329 19.1667C2.33329 19.625 2.70829 20 3.16663 20ZM15.6666 3.33333H2.33329C1.41663 3.33333 0.666626 4.08333 0.666626 5V15C0.666626 15.9167 1.41663 16.6667 2.33329 16.6667H15.6666C16.5833 16.6667 17.3333 15.9167 17.3333 15V5C17.3333 4.08333 16.5833 3.33333 15.6666 3.33333ZM8.99996 5.625C10.0333 5.625 10.875 6.46667 10.875 7.5C10.875 8.53333 10.0333 9.375 8.99996 9.375C7.96663 9.375 7.12496 8.53333 7.12496 7.5C7.12496 6.46667 7.96663 5.625 8.99996 5.625ZM13.1666 14.1667H4.83329V12.9167C4.83329 11.525 7.60829 10.8333 8.99996 10.8333C10.3916 10.8333 13.1666 11.525 13.1666 12.9167V14.1667Z" fill="#333333" fill-opacity="0.8"/>
</svg>
