<svg width="18" height="18" viewBox="0 0 18 18" fill="none" xmlns="http://www.w3.org/2000/svg">
<path d="M14.8333 5.6665H3.16663C2.70829 5.6665 2.33329 5.2915 2.33329 4.83317C2.33329 4.37484 2.70829 3.99984 3.16663 3.99984H14.8333C15.2916 3.99984 15.6666 4.37484 15.6666 4.83317C15.6666 5.2915 15.2916 5.6665 14.8333 5.6665ZM13.1666 0.666504H4.83329C4.37496 0.666504 3.99996 1.0415 3.99996 1.49984C3.99996 1.95817 4.37496 2.33317 4.83329 2.33317H13.1666C13.625 2.33317 14 1.95817 14 1.49984C14 1.0415 13.625 0.666504 13.1666 0.666504ZM17.3333 8.99984V15.6665C17.3333 16.5832 16.5833 17.3332 15.6666 17.3332H2.33329C1.41663 17.3332 0.666626 16.5832 0.666626 15.6665V8.99984C0.666626 8.08317 1.41663 7.33317 2.33329 7.33317H15.6666C16.5833 7.33317 17.3333 8.08317 17.3333 8.99984ZM11.6583 11.9665L7.33329 9.60817V15.0498L11.6583 12.6998C11.95 12.5415 11.95 12.1248 11.6583 11.9665Z" fill="#333333" fill-opacity="0.8"/>
</svg>
